{
    "asset" : {
        "generator" : "Khronos glTF Blender I/O v1.4.40",
        "version" : "2.0"
    },
    "scene" : 0,
    "scenes" : [
        {
            "name" : "Scene",
            "nodes" : [
                0,
                1,
                2,
                3,
                4
            ]
        }
    ],
    "nodes" : [
        {
            "name" : "Light",
            "rotation" : [
                0.16907575726509094,
                0.7558803558349609,
                -0.27217137813568115,
                0.570947527885437
            ],
            "translation" : [
                4.076245307922363,
                5.903861999511719,
                -1.0054539442062378
            ]
        },
        {
            "name" : "Camera",
            "rotation" : [
                0.483536034822464,
                0.33687159419059753,
                -0.20870360732078552,
                0.7804827094078064
            ],
            "translation" : [
                7.358891487121582,
                4.958309173583984,
                6.925790786743164
            ]
        },
        {
            "mesh" : 0,
            "name" : "Body",
            "scale" : [
                0.19999998807907104,
                3.299999952316284,
                0.19999998807907104
            ]
        },
        {
            "mesh" : 1,
            "name" : "Top",
            "scale" : [
                0.19999998807907104,
                3.299999952316284,
                0.19999998807907104
            ]
        },
        {
            "mesh" : 2,
            "name" : "Bottom",
            "scale" : [
                0.19999998807907104,
                3.299999952316284,
                0.19999998807907104
            ]
        }
    ],
    "materials" : [
        {
            "doubleSided" : true,
            "name" : "Material.001",
            "pbrMetallicRoughness" : {
                "baseColorTexture" : {
                    "index" : 0,
                    "texCoord" : 0
                },
                "metallicFactor" : 0,
                "roughnessFactor" : 0.5
            }
        },
        {
            "doubleSided" : true,
            "name" : "Material.002",
            "pbrMetallicRoughness" : {
                "baseColorTexture" : {
                    "index" : 1,
                    "texCoord" : 0
                },
                "metallicFactor" : 0,
                "roughnessFactor" : 0.5
            }
        },
        {
            "doubleSided" : true,
            "name" : "Material.003",
            "pbrMetallicRoughness" : {
                "baseColorTexture" : {
                    "index" : 2,
                    "texCoord" : 0
                },
                "metallicFactor" : 0,
                "roughnessFactor" : 0.5
            }
        }
    ],
    "meshes" : [
        {
            "name" : "Cylinder",
            "primitives" : [
                {
                    "attributes" : {
                        "POSITION" : 0,
                        "NORMAL" : 1,
                        "TEXCOORD_0" : 2
                    },
                    "indices" : 3,
                    "material" : 0
                }
            ]
        },
        {
            "name" : "Cylinder.001",
            "primitives" : [
                {
                    "attributes" : {
                        "POSITION" : 4,
                        "NORMAL" : 5,
                        "TEXCOORD_0" : 6
                    },
                    "indices" : 7,
                    "material" : 1
                }
            ]
        },
        {
            "name" : "Cylinder.002",
            "primitives" : [
                {
                    "attributes" : {
                        "POSITION" : 8,
                        "NORMAL" : 9,
                        "TEXCOORD_0" : 10
                    },
                    "indices" : 11,
                    "material" : 2
                }
            ]
        }
    ],
    "textures" : [
        {
            "sampler" : 0,
            "source" : 0
        },
        {
            "sampler" : 0,
            "source" : 1
        },
        {
            "sampler" : 0,
            "source" : 2
        }
    ],
    "images" : [
        {
            "bufferView" : 4,
            "mimeType" : "image/png",
            "name" : "Body"
        },
        {
            "bufferView" : 9,
            "mimeType" : "image/png",
            "name" : "Top"
        },
        {
            "bufferView" : 14,
            "mimeType" : "image/png",
            "name" : "Bottom"
        }
    ],
    "accessors" : [
        {
            "bufferView" : 0,
            "componentType" : 5126,
            "count" : 128,
            "max" : [
                0.9905428290367126,
                0.6573705077171326,
                0.9905428290367126
            ],
            "min" : [
                -0.9905428290367126,
                -0.7976133823394775,
                -0.9905428290367126
            ],
            "type" : "VEC3"
        },
        {
            "bufferView" : 1,
            "componentType" : 5126,
            "count" : 128,
            "type" : "VEC3"
        },
        {
            "bufferView" : 2,
            "componentType" : 5126,
            "count" : 128,
            "type" : "VEC2"
        },
        {
            "bufferView" : 3,
            "componentType" : 5123,
            "count" : 192,
            "type" : "SCALAR"
        },
        {
            "bufferView" : 5,
            "componentType" : 5126,
            "count" : 288,
            "max" : [
                1.0821605920791626,
                1.0299159288406372,
                1.0821630954742432
            ],
            "min" : [
                -1.0821622610092163,
                0.6573705077171326,
                -1.0821596384048462
            ],
            "type" : "VEC3"
        },
        {
            "bufferView" : 6,
            "componentType" : 5126,
            "count" : 288,
            "type" : "VEC3"
        },
        {
            "bufferView" : 7,
            "componentType" : 5126,
            "count" : 288,
            "type" : "VEC2"
        },
        {
            "bufferView" : 8,
            "componentType" : 5123,
            "count" : 474,
            "type" : "SCALAR"
        },
        {
            "bufferView" : 10,
            "componentType" : 5126,
            "count" : 288,
            "max" : [
                1.078716516494751,
                -0.7976133227348328,
                1.078708291053772
            ],
            "min" : [
                -1.0787105560302734,
                -1.0165807008743286,
                -1.0787187814712524
            ],
            "type" : "VEC3"
        },
        {
            "bufferView" : 11,
            "componentType" : 5126,
            "count" : 288,
            "type" : "VEC3"
        },
        {
            "bufferView" : 12,
            "componentType" : 5126,
            "count" : 288,
            "type" : "VEC2"
        },
        {
            "bufferView" : 13,
            "componentType" : 5123,
            "count" : 474,
            "type" : "SCALAR"
        }
    ],
    "bufferViews" : [
        {
            "buffer" : 0,
            "byteLength" : 1536,
            "byteOffset" : 0
        },
        {
            "buffer" : 0,
            "byteLength" : 1536,
            "byteOffset" : 1536
        },
        {
            "buffer" : 0,
            "byteLength" : 1024,
            "byteOffset" : 3072
        },
        {
            "buffer" : 0,
            "byteLength" : 384,
            "byteOffset" : 4096
        },
        {
            "buffer" : 0,
            "byteLength" : 20566,
            "byteOffset" : 4480
        },
        {
            "buffer" : 0,
            "byteLength" : 3456,
            "byteOffset" : 25048
        },
        {
            "buffer" : 0,
            "byteLength" : 3456,
            "byteOffset" : 28504
        },
        {
            "buffer" : 0,
            "byteLength" : 2304,
            "byteOffset" : 31960
        },
        {
            "buffer" : 0,
            "byteLength" : 948,
            "byteOffset" : 34264
        },
        {
            "buffer" : 0,
            "byteLength" : 20559,
            "byteOffset" : 35212
        },
        {
            "buffer" : 0,
            "byteLength" : 3456,
            "byteOffset" : 55772
        },
        {
            "buffer" : 0,
            "byteLength" : 3456,
            "byteOffset" : 59228
        },
        {
            "buffer" : 0,
            "byteLength" : 2304,
            "byteOffset" : 62684
        },
        {
            "buffer" : 0,
            "byteLength" : 948,
            "byteOffset" : 64988
        },
        {
            "buffer" : 0,
            "byteLength" : 20559,
            "byteOffset" : 65936
        }
    ],
    "samplers" : [
        {
            "magFilter" : 9729,
            "minFilter" : 9986
        }
    ],
    "buffers" : [
        {
            "byteLength" : 86496,
            "uri" : "data:application/octet-stream;base64,"
        }
    ]
}
